<mxfile host="app.diagrams.net" modified="2024-03-25T15:08:19.828Z" agent="Mozilla/5.0 (Macintosh; Intel Mac OS X 10_15_7) AppleWebKit/605.1.15 (KHTML, like Gecko) Version/17.1 Safari/605.1.15" etag="a-2wU3G4gm54Tc6bSSST" version="24.1.0" type="github">
  <diagram id="R2lEEEUBdFMjLlhIrx00" name="Page-1">
    <mxGraphModel dx="1363" dy="2024" grid="1" gridSize="10" guides="1" tooltips="1" connect="1" arrows="1" fold="1" page="1" pageScale="1" pageWidth="850" pageHeight="1100" math="0" shadow="0" extFonts="Permanent Marker^https://fonts.googleapis.com/css?family=Permanent+Marker">
      <root>
        <mxCell id="0" />
        <mxCell id="1" parent="0" />
        <mxCell id="C-vyLk0tnHw3VtMMgP7b-23" value="profile" style="shape=table;startSize=30;container=1;collapsible=1;childLayout=tableLayout;fixedRows=1;rowLines=0;fontStyle=1;align=center;resizeLast=1;" parent="1" vertex="1">
          <mxGeometry x="120" y="120" width="250" height="160" as="geometry" />
        </mxCell>
        <mxCell id="C-vyLk0tnHw3VtMMgP7b-24" value="" style="shape=partialRectangle;collapsible=0;dropTarget=0;pointerEvents=0;fillColor=none;points=[[0,0.5],[1,0.5]];portConstraint=eastwest;top=0;left=0;right=0;bottom=1;" parent="C-vyLk0tnHw3VtMMgP7b-23" vertex="1">
          <mxGeometry y="30" width="250" height="30" as="geometry" />
        </mxCell>
        <mxCell id="C-vyLk0tnHw3VtMMgP7b-25" value="PK" style="shape=partialRectangle;overflow=hidden;connectable=0;fillColor=none;top=0;left=0;bottom=0;right=0;fontStyle=1;" parent="C-vyLk0tnHw3VtMMgP7b-24" vertex="1">
          <mxGeometry width="30" height="30" as="geometry">
            <mxRectangle width="30" height="30" as="alternateBounds" />
          </mxGeometry>
        </mxCell>
        <mxCell id="C-vyLk0tnHw3VtMMgP7b-26" value="profile_id int NOT NULL " style="shape=partialRectangle;overflow=hidden;connectable=0;fillColor=none;top=0;left=0;bottom=0;right=0;align=left;spacingLeft=6;fontStyle=5;" parent="C-vyLk0tnHw3VtMMgP7b-24" vertex="1">
          <mxGeometry x="30" width="220" height="30" as="geometry">
            <mxRectangle width="220" height="30" as="alternateBounds" />
          </mxGeometry>
        </mxCell>
        <mxCell id="C-vyLk0tnHw3VtMMgP7b-27" value="" style="shape=partialRectangle;collapsible=0;dropTarget=0;pointerEvents=0;fillColor=none;points=[[0,0.5],[1,0.5]];portConstraint=eastwest;top=0;left=0;right=0;bottom=0;" parent="C-vyLk0tnHw3VtMMgP7b-23" vertex="1">
          <mxGeometry y="60" width="250" height="30" as="geometry" />
        </mxCell>
        <mxCell id="C-vyLk0tnHw3VtMMgP7b-28" value="" style="shape=partialRectangle;overflow=hidden;connectable=0;fillColor=none;top=0;left=0;bottom=0;right=0;" parent="C-vyLk0tnHw3VtMMgP7b-27" vertex="1">
          <mxGeometry width="30" height="30" as="geometry">
            <mxRectangle width="30" height="30" as="alternateBounds" />
          </mxGeometry>
        </mxCell>
        <mxCell id="C-vyLk0tnHw3VtMMgP7b-29" value="name varchar(25) Not Null" style="shape=partialRectangle;overflow=hidden;connectable=0;fillColor=none;top=0;left=0;bottom=0;right=0;align=left;spacingLeft=6;" parent="C-vyLk0tnHw3VtMMgP7b-27" vertex="1">
          <mxGeometry x="30" width="220" height="30" as="geometry">
            <mxRectangle width="220" height="30" as="alternateBounds" />
          </mxGeometry>
        </mxCell>
        <mxCell id="MXDMzWhHGSPrDuhpZIzF-4" value="" style="shape=partialRectangle;collapsible=0;dropTarget=0;pointerEvents=0;fillColor=none;points=[[0,0.5],[1,0.5]];portConstraint=eastwest;top=0;left=0;right=0;bottom=0;" vertex="1" parent="C-vyLk0tnHw3VtMMgP7b-23">
          <mxGeometry y="90" width="250" height="30" as="geometry" />
        </mxCell>
        <mxCell id="MXDMzWhHGSPrDuhpZIzF-5" value="" style="shape=partialRectangle;overflow=hidden;connectable=0;fillColor=none;top=0;left=0;bottom=0;right=0;" vertex="1" parent="MXDMzWhHGSPrDuhpZIzF-4">
          <mxGeometry width="30" height="30" as="geometry">
            <mxRectangle width="30" height="30" as="alternateBounds" />
          </mxGeometry>
        </mxCell>
        <mxCell id="MXDMzWhHGSPrDuhpZIzF-6" value="phone varchar(13) Not Null" style="shape=partialRectangle;overflow=hidden;connectable=0;fillColor=none;top=0;left=0;bottom=0;right=0;align=left;spacingLeft=6;" vertex="1" parent="MXDMzWhHGSPrDuhpZIzF-4">
          <mxGeometry x="30" width="220" height="30" as="geometry">
            <mxRectangle width="220" height="30" as="alternateBounds" />
          </mxGeometry>
        </mxCell>
        <mxCell id="MXDMzWhHGSPrDuhpZIzF-7" value="" style="shape=partialRectangle;collapsible=0;dropTarget=0;pointerEvents=0;fillColor=none;points=[[0,0.5],[1,0.5]];portConstraint=eastwest;top=0;left=0;right=0;bottom=0;" vertex="1" parent="C-vyLk0tnHw3VtMMgP7b-23">
          <mxGeometry y="120" width="250" height="30" as="geometry" />
        </mxCell>
        <mxCell id="MXDMzWhHGSPrDuhpZIzF-8" value="" style="shape=partialRectangle;overflow=hidden;connectable=0;fillColor=none;top=0;left=0;bottom=0;right=0;" vertex="1" parent="MXDMzWhHGSPrDuhpZIzF-7">
          <mxGeometry width="30" height="30" as="geometry">
            <mxRectangle width="30" height="30" as="alternateBounds" />
          </mxGeometry>
        </mxCell>
        <mxCell id="MXDMzWhHGSPrDuhpZIzF-9" value="email varchar(50) Not Null" style="shape=partialRectangle;overflow=hidden;connectable=0;fillColor=none;top=0;left=0;bottom=0;right=0;align=left;spacingLeft=6;" vertex="1" parent="MXDMzWhHGSPrDuhpZIzF-7">
          <mxGeometry x="30" width="220" height="30" as="geometry">
            <mxRectangle width="220" height="30" as="alternateBounds" />
          </mxGeometry>
        </mxCell>
        <mxCell id="MXDMzWhHGSPrDuhpZIzF-10" value="About" style="shape=table;startSize=30;container=1;collapsible=1;childLayout=tableLayout;fixedRows=1;rowLines=0;fontStyle=1;align=center;resizeLast=1;" vertex="1" parent="1">
          <mxGeometry x="425" y="120" width="250" height="160" as="geometry" />
        </mxCell>
        <mxCell id="MXDMzWhHGSPrDuhpZIzF-11" value="" style="shape=partialRectangle;collapsible=0;dropTarget=0;pointerEvents=0;fillColor=none;points=[[0,0.5],[1,0.5]];portConstraint=eastwest;top=0;left=0;right=0;bottom=1;" vertex="1" parent="MXDMzWhHGSPrDuhpZIzF-10">
          <mxGeometry y="30" width="250" height="30" as="geometry" />
        </mxCell>
        <mxCell id="MXDMzWhHGSPrDuhpZIzF-12" value="PK" style="shape=partialRectangle;overflow=hidden;connectable=0;fillColor=none;top=0;left=0;bottom=0;right=0;fontStyle=1;" vertex="1" parent="MXDMzWhHGSPrDuhpZIzF-11">
          <mxGeometry width="30" height="30" as="geometry">
            <mxRectangle width="30" height="30" as="alternateBounds" />
          </mxGeometry>
        </mxCell>
        <mxCell id="MXDMzWhHGSPrDuhpZIzF-13" value="about_id int NOT NULL " style="shape=partialRectangle;overflow=hidden;connectable=0;fillColor=none;top=0;left=0;bottom=0;right=0;align=left;spacingLeft=6;fontStyle=5;" vertex="1" parent="MXDMzWhHGSPrDuhpZIzF-11">
          <mxGeometry x="30" width="220" height="30" as="geometry">
            <mxRectangle width="220" height="30" as="alternateBounds" />
          </mxGeometry>
        </mxCell>
        <mxCell id="MXDMzWhHGSPrDuhpZIzF-14" value="" style="shape=partialRectangle;collapsible=0;dropTarget=0;pointerEvents=0;fillColor=none;points=[[0,0.5],[1,0.5]];portConstraint=eastwest;top=0;left=0;right=0;bottom=0;" vertex="1" parent="MXDMzWhHGSPrDuhpZIzF-10">
          <mxGeometry y="60" width="250" height="30" as="geometry" />
        </mxCell>
        <mxCell id="MXDMzWhHGSPrDuhpZIzF-15" value="" style="shape=partialRectangle;overflow=hidden;connectable=0;fillColor=none;top=0;left=0;bottom=0;right=0;" vertex="1" parent="MXDMzWhHGSPrDuhpZIzF-14">
          <mxGeometry width="30" height="30" as="geometry">
            <mxRectangle width="30" height="30" as="alternateBounds" />
          </mxGeometry>
        </mxCell>
        <mxCell id="MXDMzWhHGSPrDuhpZIzF-16" value="text varchar(255)Â " style="shape=partialRectangle;overflow=hidden;connectable=0;fillColor=none;top=0;left=0;bottom=0;right=0;align=left;spacingLeft=6;" vertex="1" parent="MXDMzWhHGSPrDuhpZIzF-14">
          <mxGeometry x="30" width="220" height="30" as="geometry">
            <mxRectangle width="220" height="30" as="alternateBounds" />
          </mxGeometry>
        </mxCell>
        <mxCell id="MXDMzWhHGSPrDuhpZIzF-17" value="" style="shape=partialRectangle;collapsible=0;dropTarget=0;pointerEvents=0;fillColor=none;points=[[0,0.5],[1,0.5]];portConstraint=eastwest;top=0;left=0;right=0;bottom=0;" vertex="1" parent="MXDMzWhHGSPrDuhpZIzF-10">
          <mxGeometry y="90" width="250" height="30" as="geometry" />
        </mxCell>
        <mxCell id="MXDMzWhHGSPrDuhpZIzF-18" value="" style="shape=partialRectangle;overflow=hidden;connectable=0;fillColor=none;top=0;left=0;bottom=0;right=0;" vertex="1" parent="MXDMzWhHGSPrDuhpZIzF-17">
          <mxGeometry width="30" height="30" as="geometry">
            <mxRectangle width="30" height="30" as="alternateBounds" />
          </mxGeometry>
        </mxCell>
        <mxCell id="MXDMzWhHGSPrDuhpZIzF-19" value="" style="shape=partialRectangle;overflow=hidden;connectable=0;fillColor=none;top=0;left=0;bottom=0;right=0;align=left;spacingLeft=6;" vertex="1" parent="MXDMzWhHGSPrDuhpZIzF-17">
          <mxGeometry x="30" width="220" height="30" as="geometry">
            <mxRectangle width="220" height="30" as="alternateBounds" />
          </mxGeometry>
        </mxCell>
        <mxCell id="MXDMzWhHGSPrDuhpZIzF-20" value="" style="shape=partialRectangle;collapsible=0;dropTarget=0;pointerEvents=0;fillColor=none;points=[[0,0.5],[1,0.5]];portConstraint=eastwest;top=0;left=0;right=0;bottom=0;" vertex="1" parent="MXDMzWhHGSPrDuhpZIzF-10">
          <mxGeometry y="120" width="250" height="30" as="geometry" />
        </mxCell>
        <mxCell id="MXDMzWhHGSPrDuhpZIzF-21" value="" style="shape=partialRectangle;overflow=hidden;connectable=0;fillColor=none;top=0;left=0;bottom=0;right=0;" vertex="1" parent="MXDMzWhHGSPrDuhpZIzF-20">
          <mxGeometry width="30" height="30" as="geometry">
            <mxRectangle width="30" height="30" as="alternateBounds" />
          </mxGeometry>
        </mxCell>
        <mxCell id="MXDMzWhHGSPrDuhpZIzF-22" value="" style="shape=partialRectangle;overflow=hidden;connectable=0;fillColor=none;top=0;left=0;bottom=0;right=0;align=left;spacingLeft=6;" vertex="1" parent="MXDMzWhHGSPrDuhpZIzF-20">
          <mxGeometry x="30" width="220" height="30" as="geometry">
            <mxRectangle width="220" height="30" as="alternateBounds" />
          </mxGeometry>
        </mxCell>
        <mxCell id="MXDMzWhHGSPrDuhpZIzF-23" value="event" style="shape=table;startSize=30;container=1;collapsible=1;childLayout=tableLayout;fixedRows=1;rowLines=0;fontStyle=1;align=center;resizeLast=1;" vertex="1" parent="1">
          <mxGeometry x="120" y="310" width="295" height="190" as="geometry" />
        </mxCell>
        <mxCell id="MXDMzWhHGSPrDuhpZIzF-24" value="" style="shape=partialRectangle;collapsible=0;dropTarget=0;pointerEvents=0;fillColor=none;points=[[0,0.5],[1,0.5]];portConstraint=eastwest;top=0;left=0;right=0;bottom=1;" vertex="1" parent="MXDMzWhHGSPrDuhpZIzF-23">
          <mxGeometry y="30" width="295" height="30" as="geometry" />
        </mxCell>
        <mxCell id="MXDMzWhHGSPrDuhpZIzF-25" value="PK" style="shape=partialRectangle;overflow=hidden;connectable=0;fillColor=none;top=0;left=0;bottom=0;right=0;fontStyle=1;" vertex="1" parent="MXDMzWhHGSPrDuhpZIzF-24">
          <mxGeometry width="30" height="30" as="geometry">
            <mxRectangle width="30" height="30" as="alternateBounds" />
          </mxGeometry>
        </mxCell>
        <mxCell id="MXDMzWhHGSPrDuhpZIzF-26" value="event_id int NOT NULL " style="shape=partialRectangle;overflow=hidden;connectable=0;fillColor=none;top=0;left=0;bottom=0;right=0;align=left;spacingLeft=6;fontStyle=5;" vertex="1" parent="MXDMzWhHGSPrDuhpZIzF-24">
          <mxGeometry x="30" width="265" height="30" as="geometry">
            <mxRectangle width="265" height="30" as="alternateBounds" />
          </mxGeometry>
        </mxCell>
        <mxCell id="MXDMzWhHGSPrDuhpZIzF-27" value="" style="shape=partialRectangle;collapsible=0;dropTarget=0;pointerEvents=0;fillColor=none;points=[[0,0.5],[1,0.5]];portConstraint=eastwest;top=0;left=0;right=0;bottom=0;" vertex="1" parent="MXDMzWhHGSPrDuhpZIzF-23">
          <mxGeometry y="60" width="295" height="30" as="geometry" />
        </mxCell>
        <mxCell id="MXDMzWhHGSPrDuhpZIzF-28" value="" style="shape=partialRectangle;overflow=hidden;connectable=0;fillColor=none;top=0;left=0;bottom=0;right=0;" vertex="1" parent="MXDMzWhHGSPrDuhpZIzF-27">
          <mxGeometry width="30" height="30" as="geometry">
            <mxRectangle width="30" height="30" as="alternateBounds" />
          </mxGeometry>
        </mxCell>
        <mxCell id="MXDMzWhHGSPrDuhpZIzF-29" value="title varchar(100)Â " style="shape=partialRectangle;overflow=hidden;connectable=0;fillColor=none;top=0;left=0;bottom=0;right=0;align=left;spacingLeft=6;" vertex="1" parent="MXDMzWhHGSPrDuhpZIzF-27">
          <mxGeometry x="30" width="265" height="30" as="geometry">
            <mxRectangle width="265" height="30" as="alternateBounds" />
          </mxGeometry>
        </mxCell>
        <mxCell id="MXDMzWhHGSPrDuhpZIzF-30" value="" style="shape=partialRectangle;collapsible=0;dropTarget=0;pointerEvents=0;fillColor=none;points=[[0,0.5],[1,0.5]];portConstraint=eastwest;top=0;left=0;right=0;bottom=0;" vertex="1" parent="MXDMzWhHGSPrDuhpZIzF-23">
          <mxGeometry y="90" width="295" height="30" as="geometry" />
        </mxCell>
        <mxCell id="MXDMzWhHGSPrDuhpZIzF-31" value="" style="shape=partialRectangle;overflow=hidden;connectable=0;fillColor=none;top=0;left=0;bottom=0;right=0;" vertex="1" parent="MXDMzWhHGSPrDuhpZIzF-30">
          <mxGeometry width="30" height="30" as="geometry">
            <mxRectangle width="30" height="30" as="alternateBounds" />
          </mxGeometry>
        </mxCell>
        <mxCell id="MXDMzWhHGSPrDuhpZIzF-32" value="image varchar(255)" style="shape=partialRectangle;overflow=hidden;connectable=0;fillColor=none;top=0;left=0;bottom=0;right=0;align=left;spacingLeft=6;" vertex="1" parent="MXDMzWhHGSPrDuhpZIzF-30">
          <mxGeometry x="30" width="265" height="30" as="geometry">
            <mxRectangle width="265" height="30" as="alternateBounds" />
          </mxGeometry>
        </mxCell>
        <mxCell id="MXDMzWhHGSPrDuhpZIzF-33" value="" style="shape=partialRectangle;collapsible=0;dropTarget=0;pointerEvents=0;fillColor=none;points=[[0,0.5],[1,0.5]];portConstraint=eastwest;top=0;left=0;right=0;bottom=0;" vertex="1" parent="MXDMzWhHGSPrDuhpZIzF-23">
          <mxGeometry y="120" width="295" height="30" as="geometry" />
        </mxCell>
        <mxCell id="MXDMzWhHGSPrDuhpZIzF-34" value="" style="shape=partialRectangle;overflow=hidden;connectable=0;fillColor=none;top=0;left=0;bottom=0;right=0;" vertex="1" parent="MXDMzWhHGSPrDuhpZIzF-33">
          <mxGeometry width="30" height="30" as="geometry">
            <mxRectangle width="30" height="30" as="alternateBounds" />
          </mxGeometry>
        </mxCell>
        <mxCell id="MXDMzWhHGSPrDuhpZIzF-35" value="partner_name varchar(50)" style="shape=partialRectangle;overflow=hidden;connectable=0;fillColor=none;top=0;left=0;bottom=0;right=0;align=left;spacingLeft=6;" vertex="1" parent="MXDMzWhHGSPrDuhpZIzF-33">
          <mxGeometry x="30" width="265" height="30" as="geometry">
            <mxRectangle width="265" height="30" as="alternateBounds" />
          </mxGeometry>
        </mxCell>
        <mxCell id="MXDMzWhHGSPrDuhpZIzF-51" value="" style="shape=partialRectangle;collapsible=0;dropTarget=0;pointerEvents=0;fillColor=none;points=[[0,0.5],[1,0.5]];portConstraint=eastwest;top=0;left=0;right=0;bottom=0;" vertex="1" parent="MXDMzWhHGSPrDuhpZIzF-23">
          <mxGeometry y="150" width="295" height="30" as="geometry" />
        </mxCell>
        <mxCell id="MXDMzWhHGSPrDuhpZIzF-52" value="" style="shape=partialRectangle;overflow=hidden;connectable=0;fillColor=none;top=0;left=0;bottom=0;right=0;" vertex="1" parent="MXDMzWhHGSPrDuhpZIzF-51">
          <mxGeometry width="30" height="30" as="geometry">
            <mxRectangle width="30" height="30" as="alternateBounds" />
          </mxGeometry>
        </mxCell>
        <mxCell id="MXDMzWhHGSPrDuhpZIzF-53" value="url varchar(255)" style="shape=partialRectangle;overflow=hidden;connectable=0;fillColor=none;top=0;left=0;bottom=0;right=0;align=left;spacingLeft=6;" vertex="1" parent="MXDMzWhHGSPrDuhpZIzF-51">
          <mxGeometry x="30" width="265" height="30" as="geometry">
            <mxRectangle width="265" height="30" as="alternateBounds" />
          </mxGeometry>
        </mxCell>
        <mxCell id="MXDMzWhHGSPrDuhpZIzF-36" value="social_media" style="shape=table;startSize=30;container=1;collapsible=1;childLayout=tableLayout;fixedRows=1;rowLines=0;fontStyle=1;align=center;resizeLast=1;" vertex="1" parent="1">
          <mxGeometry x="435" y="300" width="295" height="160" as="geometry" />
        </mxCell>
        <mxCell id="MXDMzWhHGSPrDuhpZIzF-37" value="" style="shape=partialRectangle;collapsible=0;dropTarget=0;pointerEvents=0;fillColor=none;points=[[0,0.5],[1,0.5]];portConstraint=eastwest;top=0;left=0;right=0;bottom=1;" vertex="1" parent="MXDMzWhHGSPrDuhpZIzF-36">
          <mxGeometry y="30" width="295" height="30" as="geometry" />
        </mxCell>
        <mxCell id="MXDMzWhHGSPrDuhpZIzF-38" value="PK" style="shape=partialRectangle;overflow=hidden;connectable=0;fillColor=none;top=0;left=0;bottom=0;right=0;fontStyle=1;" vertex="1" parent="MXDMzWhHGSPrDuhpZIzF-37">
          <mxGeometry width="30" height="30" as="geometry">
            <mxRectangle width="30" height="30" as="alternateBounds" />
          </mxGeometry>
        </mxCell>
        <mxCell id="MXDMzWhHGSPrDuhpZIzF-39" value="social_media_id int NOT NULL " style="shape=partialRectangle;overflow=hidden;connectable=0;fillColor=none;top=0;left=0;bottom=0;right=0;align=left;spacingLeft=6;fontStyle=5;" vertex="1" parent="MXDMzWhHGSPrDuhpZIzF-37">
          <mxGeometry x="30" width="265" height="30" as="geometry">
            <mxRectangle width="265" height="30" as="alternateBounds" />
          </mxGeometry>
        </mxCell>
        <mxCell id="MXDMzWhHGSPrDuhpZIzF-40" value="" style="shape=partialRectangle;collapsible=0;dropTarget=0;pointerEvents=0;fillColor=none;points=[[0,0.5],[1,0.5]];portConstraint=eastwest;top=0;left=0;right=0;bottom=0;" vertex="1" parent="MXDMzWhHGSPrDuhpZIzF-36">
          <mxGeometry y="60" width="295" height="30" as="geometry" />
        </mxCell>
        <mxCell id="MXDMzWhHGSPrDuhpZIzF-41" value="" style="shape=partialRectangle;overflow=hidden;connectable=0;fillColor=none;top=0;left=0;bottom=0;right=0;" vertex="1" parent="MXDMzWhHGSPrDuhpZIzF-40">
          <mxGeometry width="30" height="30" as="geometry">
            <mxRectangle width="30" height="30" as="alternateBounds" />
          </mxGeometry>
        </mxCell>
        <mxCell id="MXDMzWhHGSPrDuhpZIzF-42" value="social_media_name varchar(12)Â " style="shape=partialRectangle;overflow=hidden;connectable=0;fillColor=none;top=0;left=0;bottom=0;right=0;align=left;spacingLeft=6;" vertex="1" parent="MXDMzWhHGSPrDuhpZIzF-40">
          <mxGeometry x="30" width="265" height="30" as="geometry">
            <mxRectangle width="265" height="30" as="alternateBounds" />
          </mxGeometry>
        </mxCell>
        <mxCell id="MXDMzWhHGSPrDuhpZIzF-43" value="" style="shape=partialRectangle;collapsible=0;dropTarget=0;pointerEvents=0;fillColor=none;points=[[0,0.5],[1,0.5]];portConstraint=eastwest;top=0;left=0;right=0;bottom=0;" vertex="1" parent="MXDMzWhHGSPrDuhpZIzF-36">
          <mxGeometry y="90" width="295" height="30" as="geometry" />
        </mxCell>
        <mxCell id="MXDMzWhHGSPrDuhpZIzF-44" value="" style="shape=partialRectangle;overflow=hidden;connectable=0;fillColor=none;top=0;left=0;bottom=0;right=0;" vertex="1" parent="MXDMzWhHGSPrDuhpZIzF-43">
          <mxGeometry width="30" height="30" as="geometry">
            <mxRectangle width="30" height="30" as="alternateBounds" />
          </mxGeometry>
        </mxCell>
        <mxCell id="MXDMzWhHGSPrDuhpZIzF-45" value="url varchar(255)" style="shape=partialRectangle;overflow=hidden;connectable=0;fillColor=none;top=0;left=0;bottom=0;right=0;align=left;spacingLeft=6;" vertex="1" parent="MXDMzWhHGSPrDuhpZIzF-43">
          <mxGeometry x="30" width="265" height="30" as="geometry">
            <mxRectangle width="265" height="30" as="alternateBounds" />
          </mxGeometry>
        </mxCell>
        <mxCell id="MXDMzWhHGSPrDuhpZIzF-46" value="" style="shape=partialRectangle;collapsible=0;dropTarget=0;pointerEvents=0;fillColor=none;points=[[0,0.5],[1,0.5]];portConstraint=eastwest;top=0;left=0;right=0;bottom=0;" vertex="1" parent="MXDMzWhHGSPrDuhpZIzF-36">
          <mxGeometry y="120" width="295" height="30" as="geometry" />
        </mxCell>
        <mxCell id="MXDMzWhHGSPrDuhpZIzF-47" value="" style="shape=partialRectangle;overflow=hidden;connectable=0;fillColor=none;top=0;left=0;bottom=0;right=0;" vertex="1" parent="MXDMzWhHGSPrDuhpZIzF-46">
          <mxGeometry width="30" height="30" as="geometry">
            <mxRectangle width="30" height="30" as="alternateBounds" />
          </mxGeometry>
        </mxCell>
        <mxCell id="MXDMzWhHGSPrDuhpZIzF-48" value="" style="shape=partialRectangle;overflow=hidden;connectable=0;fillColor=none;top=0;left=0;bottom=0;right=0;align=left;spacingLeft=6;" vertex="1" parent="MXDMzWhHGSPrDuhpZIzF-46">
          <mxGeometry x="30" width="265" height="30" as="geometry">
            <mxRectangle width="265" height="30" as="alternateBounds" />
          </mxGeometry>
        </mxCell>
        <mxCell id="MXDMzWhHGSPrDuhpZIzF-54" value="profile_member" style="shape=table;startSize=30;container=1;collapsible=1;childLayout=tableLayout;fixedRows=1;rowLines=0;fontStyle=1;align=center;resizeLast=1;" vertex="1" parent="1">
          <mxGeometry x="457.5" y="-90" width="250" height="190" as="geometry" />
        </mxCell>
        <mxCell id="MXDMzWhHGSPrDuhpZIzF-55" value="" style="shape=partialRectangle;collapsible=0;dropTarget=0;pointerEvents=0;fillColor=none;points=[[0,0.5],[1,0.5]];portConstraint=eastwest;top=0;left=0;right=0;bottom=1;" vertex="1" parent="MXDMzWhHGSPrDuhpZIzF-54">
          <mxGeometry y="30" width="250" height="30" as="geometry" />
        </mxCell>
        <mxCell id="MXDMzWhHGSPrDuhpZIzF-56" value="PK" style="shape=partialRectangle;overflow=hidden;connectable=0;fillColor=none;top=0;left=0;bottom=0;right=0;fontStyle=1;" vertex="1" parent="MXDMzWhHGSPrDuhpZIzF-55">
          <mxGeometry width="32.5" height="30" as="geometry">
            <mxRectangle width="32.5" height="30" as="alternateBounds" />
          </mxGeometry>
        </mxCell>
        <mxCell id="MXDMzWhHGSPrDuhpZIzF-57" value="profile_member_id int NOT NULL " style="shape=partialRectangle;overflow=hidden;connectable=0;fillColor=none;top=0;left=0;bottom=0;right=0;align=left;spacingLeft=6;fontStyle=5;" vertex="1" parent="MXDMzWhHGSPrDuhpZIzF-55">
          <mxGeometry x="32.5" width="217.5" height="30" as="geometry">
            <mxRectangle width="217.5" height="30" as="alternateBounds" />
          </mxGeometry>
        </mxCell>
        <mxCell id="MXDMzWhHGSPrDuhpZIzF-58" value="" style="shape=partialRectangle;collapsible=0;dropTarget=0;pointerEvents=0;fillColor=none;points=[[0,0.5],[1,0.5]];portConstraint=eastwest;top=0;left=0;right=0;bottom=0;" vertex="1" parent="MXDMzWhHGSPrDuhpZIzF-54">
          <mxGeometry y="60" width="250" height="30" as="geometry" />
        </mxCell>
        <mxCell id="MXDMzWhHGSPrDuhpZIzF-59" value="FK" style="shape=partialRectangle;overflow=hidden;connectable=0;fillColor=none;top=0;left=0;bottom=0;right=0;perimeterSpacing=0;fontStyle=1" vertex="1" parent="MXDMzWhHGSPrDuhpZIzF-58">
          <mxGeometry width="32.5" height="30" as="geometry">
            <mxRectangle width="32.5" height="30" as="alternateBounds" />
          </mxGeometry>
        </mxCell>
        <mxCell id="MXDMzWhHGSPrDuhpZIzF-60" value="member_id int NOT NULL" style="shape=partialRectangle;overflow=hidden;connectable=0;fillColor=none;top=0;left=0;bottom=0;right=0;align=left;spacingLeft=6;" vertex="1" parent="MXDMzWhHGSPrDuhpZIzF-58">
          <mxGeometry x="32.5" width="217.5" height="30" as="geometry">
            <mxRectangle width="217.5" height="30" as="alternateBounds" />
          </mxGeometry>
        </mxCell>
        <mxCell id="MXDMzWhHGSPrDuhpZIzF-61" value="" style="shape=partialRectangle;collapsible=0;dropTarget=0;pointerEvents=0;fillColor=none;points=[[0,0.5],[1,0.5]];portConstraint=eastwest;top=0;left=0;right=0;bottom=0;" vertex="1" parent="MXDMzWhHGSPrDuhpZIzF-54">
          <mxGeometry y="90" width="250" height="30" as="geometry" />
        </mxCell>
        <mxCell id="MXDMzWhHGSPrDuhpZIzF-62" value="" style="shape=partialRectangle;overflow=hidden;connectable=0;fillColor=none;top=0;left=0;bottom=0;right=0;" vertex="1" parent="MXDMzWhHGSPrDuhpZIzF-61">
          <mxGeometry width="32.5" height="30" as="geometry">
            <mxRectangle width="32.5" height="30" as="alternateBounds" />
          </mxGeometry>
        </mxCell>
        <mxCell id="MXDMzWhHGSPrDuhpZIzF-63" value="image varchar(255) Not Null" style="shape=partialRectangle;overflow=hidden;connectable=0;fillColor=none;top=0;left=0;bottom=0;right=0;align=left;spacingLeft=6;" vertex="1" parent="MXDMzWhHGSPrDuhpZIzF-61">
          <mxGeometry x="32.5" width="217.5" height="30" as="geometry">
            <mxRectangle width="217.5" height="30" as="alternateBounds" />
          </mxGeometry>
        </mxCell>
        <mxCell id="MXDMzWhHGSPrDuhpZIzF-64" value="" style="shape=partialRectangle;collapsible=0;dropTarget=0;pointerEvents=0;fillColor=none;points=[[0,0.5],[1,0.5]];portConstraint=eastwest;top=0;left=0;right=0;bottom=0;" vertex="1" parent="MXDMzWhHGSPrDuhpZIzF-54">
          <mxGeometry y="120" width="250" height="30" as="geometry" />
        </mxCell>
        <mxCell id="MXDMzWhHGSPrDuhpZIzF-65" value="" style="shape=partialRectangle;overflow=hidden;connectable=0;fillColor=none;top=0;left=0;bottom=0;right=0;" vertex="1" parent="MXDMzWhHGSPrDuhpZIzF-64">
          <mxGeometry width="32.5" height="30" as="geometry">
            <mxRectangle width="32.5" height="30" as="alternateBounds" />
          </mxGeometry>
        </mxCell>
        <mxCell id="MXDMzWhHGSPrDuhpZIzF-66" value="name varchar(25) Not Null" style="shape=partialRectangle;overflow=hidden;connectable=0;fillColor=none;top=0;left=0;bottom=0;right=0;align=left;spacingLeft=6;" vertex="1" parent="MXDMzWhHGSPrDuhpZIzF-64">
          <mxGeometry x="32.5" width="217.5" height="30" as="geometry">
            <mxRectangle width="217.5" height="30" as="alternateBounds" />
          </mxGeometry>
        </mxCell>
        <mxCell id="MXDMzWhHGSPrDuhpZIzF-68" value="" style="shape=partialRectangle;collapsible=0;dropTarget=0;pointerEvents=0;fillColor=none;points=[[0,0.5],[1,0.5]];portConstraint=eastwest;top=0;left=0;right=0;bottom=0;" vertex="1" parent="MXDMzWhHGSPrDuhpZIzF-54">
          <mxGeometry y="150" width="250" height="30" as="geometry" />
        </mxCell>
        <mxCell id="MXDMzWhHGSPrDuhpZIzF-69" value="" style="shape=partialRectangle;overflow=hidden;connectable=0;fillColor=none;top=0;left=0;bottom=0;right=0;" vertex="1" parent="MXDMzWhHGSPrDuhpZIzF-68">
          <mxGeometry width="32.5" height="30" as="geometry">
            <mxRectangle width="32.5" height="30" as="alternateBounds" />
          </mxGeometry>
        </mxCell>
        <mxCell id="MXDMzWhHGSPrDuhpZIzF-70" value="bidang varchar(25) Not Null" style="shape=partialRectangle;overflow=hidden;connectable=0;fillColor=none;top=0;left=0;bottom=0;right=0;align=left;spacingLeft=6;" vertex="1" parent="MXDMzWhHGSPrDuhpZIzF-68">
          <mxGeometry x="32.5" width="217.5" height="30" as="geometry">
            <mxRectangle width="217.5" height="30" as="alternateBounds" />
          </mxGeometry>
        </mxCell>
        <mxCell id="MXDMzWhHGSPrDuhpZIzF-67" style="edgeStyle=orthogonalEdgeStyle;rounded=0;orthogonalLoop=1;jettySize=auto;html=1;entryX=0;entryY=0.5;entryDx=0;entryDy=0;" edge="1" parent="1" source="C-vyLk0tnHw3VtMMgP7b-24" target="MXDMzWhHGSPrDuhpZIzF-58">
          <mxGeometry relative="1" as="geometry" />
        </mxCell>
        <mxCell id="MXDMzWhHGSPrDuhpZIzF-71" value="article" style="shape=table;startSize=30;container=1;collapsible=1;childLayout=tableLayout;fixedRows=1;rowLines=0;fontStyle=1;align=center;resizeLast=1;" vertex="1" parent="1">
          <mxGeometry x="320" y="520" width="295" height="220" as="geometry" />
        </mxCell>
        <mxCell id="MXDMzWhHGSPrDuhpZIzF-72" value="" style="shape=partialRectangle;collapsible=0;dropTarget=0;pointerEvents=0;fillColor=none;points=[[0,0.5],[1,0.5]];portConstraint=eastwest;top=0;left=0;right=0;bottom=1;" vertex="1" parent="MXDMzWhHGSPrDuhpZIzF-71">
          <mxGeometry y="30" width="295" height="30" as="geometry" />
        </mxCell>
        <mxCell id="MXDMzWhHGSPrDuhpZIzF-73" value="PK" style="shape=partialRectangle;overflow=hidden;connectable=0;fillColor=none;top=0;left=0;bottom=0;right=0;fontStyle=1;" vertex="1" parent="MXDMzWhHGSPrDuhpZIzF-72">
          <mxGeometry width="30" height="30" as="geometry">
            <mxRectangle width="30" height="30" as="alternateBounds" />
          </mxGeometry>
        </mxCell>
        <mxCell id="MXDMzWhHGSPrDuhpZIzF-74" value="article_id int NOT NULL " style="shape=partialRectangle;overflow=hidden;connectable=0;fillColor=none;top=0;left=0;bottom=0;right=0;align=left;spacingLeft=6;fontStyle=5;" vertex="1" parent="MXDMzWhHGSPrDuhpZIzF-72">
          <mxGeometry x="30" width="265" height="30" as="geometry">
            <mxRectangle width="265" height="30" as="alternateBounds" />
          </mxGeometry>
        </mxCell>
        <mxCell id="MXDMzWhHGSPrDuhpZIzF-75" value="" style="shape=partialRectangle;collapsible=0;dropTarget=0;pointerEvents=0;fillColor=none;points=[[0,0.5],[1,0.5]];portConstraint=eastwest;top=0;left=0;right=0;bottom=0;" vertex="1" parent="MXDMzWhHGSPrDuhpZIzF-71">
          <mxGeometry y="60" width="295" height="30" as="geometry" />
        </mxCell>
        <mxCell id="MXDMzWhHGSPrDuhpZIzF-76" value="" style="shape=partialRectangle;overflow=hidden;connectable=0;fillColor=none;top=0;left=0;bottom=0;right=0;" vertex="1" parent="MXDMzWhHGSPrDuhpZIzF-75">
          <mxGeometry width="30" height="30" as="geometry">
            <mxRectangle width="30" height="30" as="alternateBounds" />
          </mxGeometry>
        </mxCell>
        <mxCell id="MXDMzWhHGSPrDuhpZIzF-77" value="date Date()Â " style="shape=partialRectangle;overflow=hidden;connectable=0;fillColor=none;top=0;left=0;bottom=0;right=0;align=left;spacingLeft=6;" vertex="1" parent="MXDMzWhHGSPrDuhpZIzF-75">
          <mxGeometry x="30" width="265" height="30" as="geometry">
            <mxRectangle width="265" height="30" as="alternateBounds" />
          </mxGeometry>
        </mxCell>
        <mxCell id="MXDMzWhHGSPrDuhpZIzF-78" value="" style="shape=partialRectangle;collapsible=0;dropTarget=0;pointerEvents=0;fillColor=none;points=[[0,0.5],[1,0.5]];portConstraint=eastwest;top=0;left=0;right=0;bottom=0;" vertex="1" parent="MXDMzWhHGSPrDuhpZIzF-71">
          <mxGeometry y="90" width="295" height="30" as="geometry" />
        </mxCell>
        <mxCell id="MXDMzWhHGSPrDuhpZIzF-79" value="" style="shape=partialRectangle;overflow=hidden;connectable=0;fillColor=none;top=0;left=0;bottom=0;right=0;" vertex="1" parent="MXDMzWhHGSPrDuhpZIzF-78">
          <mxGeometry width="30" height="30" as="geometry">
            <mxRectangle width="30" height="30" as="alternateBounds" />
          </mxGeometry>
        </mxCell>
        <mxCell id="MXDMzWhHGSPrDuhpZIzF-80" value="title varchar(100)Â " style="shape=partialRectangle;overflow=hidden;connectable=0;fillColor=none;top=0;left=0;bottom=0;right=0;align=left;spacingLeft=6;" vertex="1" parent="MXDMzWhHGSPrDuhpZIzF-78">
          <mxGeometry x="30" width="265" height="30" as="geometry">
            <mxRectangle width="265" height="30" as="alternateBounds" />
          </mxGeometry>
        </mxCell>
        <mxCell id="MXDMzWhHGSPrDuhpZIzF-81" value="" style="shape=partialRectangle;collapsible=0;dropTarget=0;pointerEvents=0;fillColor=none;points=[[0,0.5],[1,0.5]];portConstraint=eastwest;top=0;left=0;right=0;bottom=0;" vertex="1" parent="MXDMzWhHGSPrDuhpZIzF-71">
          <mxGeometry y="120" width="295" height="30" as="geometry" />
        </mxCell>
        <mxCell id="MXDMzWhHGSPrDuhpZIzF-82" value="" style="shape=partialRectangle;overflow=hidden;connectable=0;fillColor=none;top=0;left=0;bottom=0;right=0;" vertex="1" parent="MXDMzWhHGSPrDuhpZIzF-81">
          <mxGeometry width="30" height="30" as="geometry">
            <mxRectangle width="30" height="30" as="alternateBounds" />
          </mxGeometry>
        </mxCell>
        <mxCell id="MXDMzWhHGSPrDuhpZIzF-83" value="image varchar(255)" style="shape=partialRectangle;overflow=hidden;connectable=0;fillColor=none;top=0;left=0;bottom=0;right=0;align=left;spacingLeft=6;" vertex="1" parent="MXDMzWhHGSPrDuhpZIzF-81">
          <mxGeometry x="30" width="265" height="30" as="geometry">
            <mxRectangle width="265" height="30" as="alternateBounds" />
          </mxGeometry>
        </mxCell>
        <mxCell id="MXDMzWhHGSPrDuhpZIzF-84" value="" style="shape=partialRectangle;collapsible=0;dropTarget=0;pointerEvents=0;fillColor=none;points=[[0,0.5],[1,0.5]];portConstraint=eastwest;top=0;left=0;right=0;bottom=0;" vertex="1" parent="MXDMzWhHGSPrDuhpZIzF-71">
          <mxGeometry y="150" width="295" height="30" as="geometry" />
        </mxCell>
        <mxCell id="MXDMzWhHGSPrDuhpZIzF-85" value="" style="shape=partialRectangle;overflow=hidden;connectable=0;fillColor=none;top=0;left=0;bottom=0;right=0;" vertex="1" parent="MXDMzWhHGSPrDuhpZIzF-84">
          <mxGeometry width="30" height="30" as="geometry">
            <mxRectangle width="30" height="30" as="alternateBounds" />
          </mxGeometry>
        </mxCell>
        <mxCell id="MXDMzWhHGSPrDuhpZIzF-86" value="isi varchar(255)" style="shape=partialRectangle;overflow=hidden;connectable=0;fillColor=none;top=0;left=0;bottom=0;right=0;align=left;spacingLeft=6;" vertex="1" parent="MXDMzWhHGSPrDuhpZIzF-84">
          <mxGeometry x="30" width="265" height="30" as="geometry">
            <mxRectangle width="265" height="30" as="alternateBounds" />
          </mxGeometry>
        </mxCell>
        <mxCell id="MXDMzWhHGSPrDuhpZIzF-87" value="" style="shape=partialRectangle;collapsible=0;dropTarget=0;pointerEvents=0;fillColor=none;points=[[0,0.5],[1,0.5]];portConstraint=eastwest;top=0;left=0;right=0;bottom=0;" vertex="1" parent="MXDMzWhHGSPrDuhpZIzF-71">
          <mxGeometry y="180" width="295" height="30" as="geometry" />
        </mxCell>
        <mxCell id="MXDMzWhHGSPrDuhpZIzF-88" value="" style="shape=partialRectangle;overflow=hidden;connectable=0;fillColor=none;top=0;left=0;bottom=0;right=0;" vertex="1" parent="MXDMzWhHGSPrDuhpZIzF-87">
          <mxGeometry width="30" height="30" as="geometry">
            <mxRectangle width="30" height="30" as="alternateBounds" />
          </mxGeometry>
        </mxCell>
        <mxCell id="MXDMzWhHGSPrDuhpZIzF-89" value="comment varchar(255)" style="shape=partialRectangle;overflow=hidden;connectable=0;fillColor=none;top=0;left=0;bottom=0;right=0;align=left;spacingLeft=6;" vertex="1" parent="MXDMzWhHGSPrDuhpZIzF-87">
          <mxGeometry x="30" width="265" height="30" as="geometry">
            <mxRectangle width="265" height="30" as="alternateBounds" />
          </mxGeometry>
        </mxCell>
      </root>
    </mxGraphModel>
  </diagram>
</mxfile>
